<svg width="175" height="48" viewBox="0 0 175 48" fill="none" xmlns="http://www.w3.org/2000/svg">
<path d="M57.844 31.091V10.8677H54.5795V31.091H57.844Z" fill="#110229"/>
<path d="M59.842 24.3499C59.842 28.4815 62.5714 31.4171 66.7189 31.4171C70.8664 31.4171 73.5957 28.4815 73.5957 24.3499C73.5957 20.2182 70.8664 17.2826 66.7189 17.2826C62.5714 17.2826 59.842 20.2182 59.842 24.3499ZM63.1333 24.3499C63.1333 21.9307 64.5515 20.2454 66.7189 20.2454C68.8863 20.2454 70.3045 21.9307 70.3045 24.3499C70.3045 26.7419 68.8863 28.4543 66.7189 28.4543C64.5515 28.4543 63.1333 26.7419 63.1333 24.3499Z" fill="#110229"/>
<path d="M74.6937 24.078C74.6937 27.9922 77.1822 30.8191 80.9016 30.8191C82.8282 30.8191 84.4872 30.0308 85.3167 28.7261V31.0093C85.3167 33.2111 83.9521 34.6789 81.6776 34.6789C79.644 34.6789 78.2526 33.6732 78.0652 31.9063H74.774C75.2021 35.4128 77.8512 37.6961 81.4903 37.6961C85.7716 37.6961 88.5009 34.842 88.5009 30.4113V17.6631H85.6111L85.4238 19.4842C84.621 18.0708 82.962 17.2281 81.0086 17.2281C77.2357 17.2281 74.6937 20.1366 74.6937 24.078ZM78.0117 23.9964C78.0117 21.7675 79.4032 20.1366 81.4635 20.1366C83.7112 20.1366 85.2097 21.7947 85.2097 23.9964C85.2097 26.2253 83.7112 27.9378 81.4635 27.9378C79.4299 27.9378 78.0117 26.2525 78.0117 23.9964Z" fill="#110229"/>
<path d="M90.1165 24.3499C90.1165 28.4815 92.8458 31.4171 96.9933 31.4171C101.141 31.4171 103.87 28.4815 103.87 24.3499C103.87 20.2182 101.141 17.2826 96.9933 17.2826C92.8458 17.2826 90.1165 20.2182 90.1165 24.3499ZM93.4077 24.3499C93.4077 21.9307 94.8259 20.2454 96.9933 20.2454C99.1607 20.2454 100.579 21.9307 100.579 24.3499C100.579 26.7419 99.1607 28.4543 96.9933 28.4543C94.8259 28.4543 93.4077 26.7419 93.4077 24.3499Z" fill="#110229"/>
<path d="M107.403 14.9177C108.473 14.9177 109.356 14.0479 109.356 12.9334C109.356 11.8461 108.473 10.9763 107.403 10.9763C106.306 10.9763 105.476 11.8461 105.476 12.9334C105.476 14.0479 106.306 14.9177 107.403 14.9177ZM105.771 31.0909H109.035V17.663H105.771V31.0909Z" fill="#110229"/>
<path d="M111.895 37.3156H115.08V29.2426C115.909 30.6288 117.702 31.4443 119.682 31.4443C123.589 31.4443 125.917 28.3999 125.863 24.2139C125.783 20.0007 123.401 17.2554 119.655 17.2554C117.648 17.2554 115.829 18.1524 115.026 19.7017L114.839 17.6631H111.895V37.3156ZM115.213 24.377C115.213 21.9578 116.658 20.2726 118.933 20.2726C121.207 20.2726 122.572 21.985 122.572 24.377C122.572 26.769 121.207 28.4543 118.933 28.4543C116.658 28.4543 115.213 26.7962 115.213 24.377Z" fill="#110229"/>
<path d="M126.692 27.068C126.799 29.7318 128.832 31.4443 131.99 31.4443C135.094 31.4443 137.208 29.759 137.208 27.1496C137.208 25.2196 136.03 23.9149 133.863 23.3713L131.535 22.8005C130.545 22.5286 129.876 22.1753 129.876 21.3055C129.876 20.3813 130.598 19.7289 131.776 19.7289C133.006 19.7289 133.809 20.4356 133.809 21.6045H136.779C136.672 18.9406 134.719 17.2554 131.856 17.2554C129.02 17.2554 126.906 18.9406 126.906 21.4957C126.906 23.2354 127.896 24.676 130.438 25.3556L132.739 25.9536C133.595 26.1982 134.13 26.6059 134.13 27.367C134.13 28.4271 133.14 28.9164 131.936 28.9164C130.491 28.9164 129.662 28.2368 129.662 27.068H126.692Z" fill="#110229"/>
<path d="M143.98 31.4443C145.772 31.4443 147.485 30.6016 148.261 29.3513L148.475 31.0909H151.525V17.6631H148.261V24.7032C148.261 27.1224 147.351 28.4815 145.211 28.4815C143.552 28.4815 142.401 27.666 142.401 24.8935V17.6631H139.136V26.0623C139.136 29.2697 140.849 31.4443 143.98 31.4443Z" fill="#110229"/>
<path d="M157.671 31.0909V23.3713C157.671 21.1967 158.928 20.1638 160.48 20.1638C162.032 20.1638 163.049 21.1696 163.049 23.0723V31.0909H166.233V23.3985C166.233 21.1967 167.464 20.1638 169.016 20.1638C170.595 20.1638 171.612 21.1696 171.612 23.0723V31.0909H174.769V22.3112C174.769 19.2125 173.083 17.2554 169.872 17.2554C167.865 17.2554 166.287 18.2339 165.644 19.8105C164.922 18.2339 163.477 17.2554 161.283 17.2554C159.731 17.2554 158.34 17.9893 157.564 19.1853L157.403 17.6631H154.406V31.0909H157.671Z" fill="#110229"/>
<path d="M149.844 43.0911C150.331 43.0911 150.753 42.6751 150.753 42.1811C150.753 41.6741 150.331 41.2581 149.844 41.2581C149.345 41.2581 148.923 41.6741 148.923 42.1811C148.923 42.6751 149.345 43.0911 149.844 43.0911Z" fill="#110229"/>
<path d="M151.692 39.7371C151.692 41.7261 152.895 43.0651 154.648 43.0651C156.158 43.0651 157.31 42.1421 157.553 40.7641H156.401C156.184 41.5311 155.518 41.9861 154.725 41.9861C153.599 41.9861 152.882 41.1021 152.882 39.7241C152.882 38.3201 153.637 37.4621 154.75 37.4621C155.518 37.4621 156.184 37.8781 156.388 38.6971H157.54C157.335 37.3061 156.261 36.3701 154.763 36.3701C152.946 36.3701 151.692 37.7351 151.692 39.7371Z" fill="#110229"/>
<path d="M158.007 39.7241C158.007 41.6351 159.287 43.0651 161.206 43.0651C163.126 43.0651 164.405 41.6351 164.405 39.7241C164.405 37.8131 163.126 36.3831 161.206 36.3831C159.287 36.3831 158.007 37.8131 158.007 39.7241ZM159.223 39.7241C159.223 38.4241 160.003 37.4751 161.206 37.4751C162.409 37.4751 163.19 38.4241 163.19 39.7241C163.19 41.0241 162.409 41.9731 161.206 41.9731C160.003 41.9731 159.223 41.0241 159.223 39.7241Z" fill="#110229"/>
<path d="M166.636 42.9221V39.1001C166.636 38.0991 167.25 37.4491 168.146 37.4491C169.003 37.4491 169.541 38.0081 169.541 39.0091V42.9221H170.718V39.1131C170.718 38.0991 171.319 37.4491 172.228 37.4491C173.073 37.4491 173.61 38.0081 173.61 39.0091V42.9221H174.775V38.7491C174.775 37.2801 173.93 36.3831 172.497 36.3831C171.524 36.3831 170.769 36.8641 170.462 37.6441C170.142 36.8641 169.438 36.3831 168.415 36.3831C167.634 36.3831 166.943 36.7471 166.597 37.3711L166.508 36.5651H165.433V42.9221H166.636Z" fill="#110229"/>
<path fill-rule="evenodd" clip-rule="evenodd" d="M0.326782 24.5145L0.329028 24.2776L0.333658 24.0407L0.340685 23.8037L0.350097 23.5668L0.361917 23.3298L0.376122 23.0928L0.392735 22.856L0.411734 22.6192L0.43314 22.3825L0.456943 22.1457L0.483143 21.9094L0.511728 21.673L0.542721 21.4369L0.57611 21.201L0.611884 20.9653L0.650056 20.73L0.690623 20.4949L0.733564 20.2601L0.778902 20.0257L0.826625 19.7916L0.876732 19.5578L0.929201 19.3245L0.984067 19.0917L1.04128 18.8592L1.10088 18.6273L1.16283 18.3958L1.22716 18.1649L1.29383 17.9346L1.36286 17.7048L1.43422 17.4757L1.50793 17.2471L1.58398 17.0191L1.66236 16.7919L1.74306 16.5653L1.82608 16.3395L1.9114 16.1143L1.99904 15.89L2.08897 15.6664L2.18119 15.4438L2.27569 15.2218L2.37248 15.0007L2.47153 14.7805L2.57284 14.5613L2.6764 14.3429L2.78221 14.1254L2.89026 13.9091L3.00053 13.6936L3.11302 13.4791L3.2277 13.2658L3.34459 13.0534L3.46368 12.8421L3.58492 12.632L3.70835 12.4229L3.83393 12.215L3.96166 12.0083L4.09151 11.8028L4.2235 11.5986L4.35761 11.3954L4.49381 11.1937L4.6321 10.9932L4.77246 10.7939L4.91489 10.5961L5.05937 10.3994L5.20589 10.2043L5.35444 10.0105L5.505 9.818L5.65755 9.62702L5.8121 9.43748L5.96861 9.24941L6.12709 9.06281L6.28751 8.87773L6.44985 8.69418L6.61411 8.51217L6.78028 8.33173L6.94832 8.15287L7.11823 7.97562L7.29 7.79999L7.4636 7.626L7.63903 7.45368L7.81626 7.28304L7.99528 7.11411L8.17608 6.94688L8.35863 6.7814L8.54292 6.61768L8.72894 6.45571L8.91665 6.29555L9.10605 6.1372L9.29713 5.98066L9.48986 5.82598L9.68422 5.67314L9.88014 5.5222L10.0778 5.37314L10.277 5.226L10.4777 5.08079L10.6799 4.93752L10.8837 4.79621L11.0889 4.65686L11.2956 4.51952L11.5039 4.38418L11.7137 4.25087L11.9247 4.1196L12.1372 3.99036L12.3511 3.86321L12.5663 3.73814L12.7829 3.61516L13.0008 3.4943L13.22 3.37555L13.4405 3.25895L13.6622 3.14449L13.8853 3.0322L14.1094 2.9221L14.3349 2.81417L14.5614 2.70846L14.7892 2.60497L15.0181 2.5037L15.2481 2.40467L15.4791 2.3079L15.7112 2.21339L15.9444 2.12115L16.1785 2.03122L16.4137 1.94356L16.6498 1.85823L16.8869 1.77521L17.125 1.69452L17.3638 1.61617L17.6036 1.54017L17.8443 1.46653L18.0858 1.39527L18.328 1.32638L18.5712 1.25987L18.815 1.19575L19.0596 1.13405L19.3048 1.07477L19.5509 1.01789L19.7975 0.963456L20.0447 0.911444L20.2927 0.861878L20.5412 0.814771L20.7903 0.77011L21.0399 0.727919L21.29 0.688198L21.5406 0.650947L21.7917 0.61619L22.0432 0.583915L22.2952 0.554133L22.5476 0.526833L22.8003 0.502062L23.0533 0.479785L23.3067 0.460013L23.5603 0.44277L24.9243 0.363647L25.0021 7.03935L25.0467 7.03883L25.235 7.03856L25.4234 7.04016L25.6117 7.04365L25.8003 7.04903L25.9888 7.05628L26.1774 7.06541L26.366 7.07643L26.5545 7.08935L26.743 7.10414L26.9316 7.12082L27.12 7.1394L27.3083 7.15987L27.4964 7.18222L27.6845 7.20646L27.8724 7.23259L28.0602 7.2606L28.2478 7.29051L28.4352 7.3223L28.6222 7.35597L28.8092 7.39153L28.9958 7.42897L29.1821 7.4683L29.3682 7.5095L29.5539 7.55258L29.7392 7.59752L29.9243 7.64435L30.109 7.69305L30.2931 7.74361L30.4769 7.79603L30.6604 7.85031L30.8433 7.90645L31.0257 7.96444L31.2077 8.02429L31.3892 8.08598L31.5701 8.1495L31.7504 8.21487L31.9303 8.28205L32.1094 8.35108L32.288 8.42192L32.466 8.49459L32.6433 8.56907L32.8199 8.64535L32.9959 8.72343L33.1713 8.80331L33.3458 8.88497L33.5196 8.96841L33.6927 9.05363L33.865 9.14062L34.0365 9.22938L34.2071 9.31988L34.377 9.41213L34.546 9.50613L34.7141 9.60186L34.8814 9.69931L35.0478 9.79848L35.2132 9.89938L35.3778 10.002L35.5413 10.1062L35.7039 10.2122L35.8654 10.3198L36.026 10.4291L36.1856 10.54L36.3441 10.6526L36.5016 10.7668L36.658 10.8827L36.8132 11.0001L36.9674 11.1193L37.1204 11.2399L37.2723 11.3622L37.423 11.486L37.5726 11.6114L37.721 11.7384L37.8681 11.8669L38.0141 11.9969L38.1589 12.1284L38.3022 12.2615L38.4444 12.3961L38.5852 12.5321L38.7248 12.6696L38.8631 12.8085L39 12.9489L39.1355 13.0909L39.2698 13.2341L39.4025 13.3788L39.534 13.5248L39.6639 13.6723L39.7925 13.8211L39.9197 13.9713L40.0453 14.1228L40.1696 14.2757L40.2923 14.4299L40.4135 14.5853L40.5332 14.742L40.6514 14.9L40.7681 15.0593L40.8832 15.2198L40.9967 15.3816L41.1086 15.5446L41.2191 15.7086L41.3278 15.8739L41.435 16.0405L41.5405 16.2082L41.6443 16.3769L41.7465 16.5468L41.8471 16.7178L41.9459 16.8898L42.0431 17.063L42.1386 17.2372L42.2324 17.4124L42.3244 17.5886L42.4147 17.7659L42.5032 17.9441L42.59 18.1233L42.675 18.3035L42.7583 18.4846L42.8398 18.6666L42.9195 18.8495L42.9973 19.0333L43.0733 19.218L43.1475 19.4034L43.2199 19.5898L43.2904 19.7769L43.359 19.9649L43.4258 20.1535L43.4907 20.3431L43.5538 20.5333L43.615 20.7242L43.6742 20.9158L43.7315 21.1081L43.7869 21.3011L43.8404 21.4947L43.892 21.689L43.9416 21.8838L43.9892 22.0792L44.0351 22.2753L44.0788 22.4718L44.1206 22.6689L44.1605 22.8664L44.1983 23.0646L44.2341 23.2631L44.2681 23.4622L44.3 23.6615L44.3299 23.8614L44.3578 24.0617L44.3836 24.2623L44.4075 24.4633L44.4293 24.6645L44.4491 24.8662L44.4669 25.068L44.4827 25.2702L44.4965 25.4727L44.5081 25.6754L44.5178 25.8782L44.5254 26.0813L44.5309 26.2845L44.5345 26.4879L44.5359 26.6914L44.5353 26.895L44.5326 27.0987L44.5279 27.3026L44.5211 27.5063L44.5123 27.7102L44.5015 27.9141L44.4884 28.1179L44.4734 28.3218L44.4563 28.5255L44.4371 28.7293L44.416 28.9329L44.3926 29.1363L44.3672 29.3397L44.3399 29.5429L44.3103 29.7459L44.2788 29.9487L44.2452 30.1513L44.2095 30.3536L44.1718 30.5557L44.132 30.7575L44.0901 30.959L44.0461 31.1602L44.0002 31.3611L43.9522 31.5615L43.9021 31.7616L43.85 31.9612L43.7959 32.1605L43.7397 32.3592L43.6815 32.5576L43.6212 32.7555L43.5589 32.9528L43.4947 33.1496L43.4283 33.3458L43.3599 33.5415L43.2897 33.7367L43.2173 33.9311L43.143 34.1249L43.0666 34.3181L42.9884 34.5106L42.9081 34.7024L42.8258 34.8937L42.7416 35.0839L42.6554 35.2736L42.5672 35.4625L42.4772 35.6505L42.385 35.8378L42.2911 36.0242L42.1951 36.2099L42.0974 36.3944L41.9976 36.5783L41.896 36.7612L41.7925 36.9432L41.6871 37.1242L41.5798 37.3042L41.4707 37.4834L41.3596 37.6614L41.2467 37.8384L41.1321 38.0144L41.0156 38.1893L40.8973 38.3631L40.7771 38.5359L40.6552 38.7075L40.5314 38.878L40.4058 39.0474L40.2786 39.2156L40.1495 39.3824L40.0188 39.5483L39.8863 39.7128L39.752 39.876L39.616 40.038L39.4784 40.1987L39.339 40.3581L39.198 40.5163L39.0554 40.6731L38.9111 40.8285L38.7651 40.9826L38.6176 41.1352L38.4683 41.2865L38.3175 41.4363L38.1653 41.5848L38.0113 41.7318L37.8559 41.8773L37.6988 42.0213L37.5403 42.1637L37.3803 42.3047L37.2187 42.4443L37.0557 42.5822L36.8912 42.7185L36.7253 42.8533L36.5579 42.9865L36.3891 43.118L36.2189 43.2479L36.0473 43.3763L35.8744 43.503L35.7 43.6279L35.5243 43.7513L35.3474 43.8729L35.1692 43.9927L34.9895 44.1109L34.8087 44.2274L34.6267 44.3421L34.4433 44.455L34.2587 44.5661L34.0729 44.6756L33.886 44.7831L33.6978 44.8888L33.5086 44.9928L33.3182 45.0948L33.1267 45.195L32.934 45.2934L32.7403 45.3899L32.5456 45.4844L32.3498 45.5772L32.1529 45.6679L31.9551 45.7568L31.7563 45.8437L31.5566 45.9287L31.3559 46.0117L31.1543 46.0928L30.9517 46.1719L30.7482 46.249L30.5439 46.3241L30.3387 46.3972L30.1328 46.4683L29.9261 46.5374L29.7184 46.6044L29.51 46.6694L29.301 46.7324L29.0912 46.7933L28.8806 46.8521L28.6695 46.909L28.4575 46.9636L28.2451 47.0162L28.0319 47.0667L27.8181 47.1151L27.6038 47.1614L27.3889 47.2056L27.1735 47.2477L26.9575 47.2876L26.7412 47.3253L26.5242 47.361L26.3069 47.3946L26.0889 47.4259L25.8708 47.4551L25.6522 47.4821L25.4331 47.507L25.2138 47.5297L24.9942 47.5502L24.7743 47.5685L24.5541 47.5847L24.3336 47.5987L24.1128 47.6105L23.8919 47.6201L23.6708 47.6274L23.4494 47.6326L23.228 47.6355L23.0064 47.6364L22.7848 47.635L22.563 47.6313L22.3412 47.6255L22.1193 47.6173L21.8975 47.6071L21.6756 47.5947L21.4539 47.5799L21.232 47.563L21.0104 47.5438L20.7887 47.5224L20.5672 47.4989L20.346 47.4732L20.1248 47.4452L19.9037 47.4149L19.683 47.3824L19.4625 47.3478L19.2422 47.3109L19.0222 47.2719L18.8025 47.2305L18.5832 47.1871L18.3641 47.1414L18.1455 47.0934L17.9271 47.0433L17.7093 46.9911L17.4919 46.9366L17.2749 46.8799L17.0584 46.821L16.8425 46.7601L16.627 46.6968L16.412 46.6315L16.1977 46.5639L15.984 46.4942L15.7709 46.4223L15.5583 46.3482L15.3465 46.272L15.1353 46.1937L14.9249 46.1133L14.7151 46.0306L14.5062 45.9459L14.2979 45.859L14.0905 45.77L13.8839 45.679L13.6781 45.5859L13.4731 45.4907L13.269 45.3933L13.0659 45.2939L12.8637 45.1924L12.6623 45.0888L12.462 44.9833L12.2627 44.8757L12.0642 44.7661L11.8669 44.6544L11.6706 44.5407L11.4754 44.425L11.2812 44.3073L11.0882 44.1877L10.8963 44.066L10.7055 43.9425L10.5159 43.8169L10.3275 43.6895L10.1403 43.5599L9.95437 43.4286L9.76962 43.2954L9.58616 43.1602L9.404 43.0233L9.22313 42.8843L9.04361 42.7435L8.86543 42.601L8.6886 42.4565L8.51317 42.3103L8.33914 42.1622L8.16653 42.0123L7.99535 41.8607L7.82565 41.7072L7.65742 41.552L7.4907 41.3952L7.32547 41.2365L7.16179 41.0762L6.99966 40.9141L6.83909 40.7504L6.68011 40.5851L6.52274 40.418L6.36698 40.2493L6.21287 40.079L6.06041 39.9071L5.90963 39.7336L5.76053 39.5585L5.61313 39.3818L5.46747 39.2037L5.32354 39.024L5.18136 38.8428L5.04096 38.6601L4.90234 38.476L4.76553 38.2903L4.63053 38.1032L4.49737 37.9147L4.36604 37.7248L4.23659 37.5336L4.10901 37.341L3.98333 37.1469L3.85956 36.9517L3.73769 36.755L3.61777 36.5571L3.4998 36.3579L3.38378 36.1574L3.26976 35.9558L3.15771 35.7528L3.04767 35.5487L2.93965 35.3433L2.83364 35.1369L2.72969 34.9293L2.62777 34.7206L2.52794 34.5109L2.43018 34.2999L2.3345 34.088L2.24093 33.8749L2.14947 33.661L2.06013 33.4459L1.97293 33.23L1.88786 33.013L1.80496 32.7951L1.72423 32.5764L1.64567 32.3566L1.56929 32.1361L1.4951 31.9148L1.42312 31.6925L1.35336 31.4695L1.28582 31.2456L1.22052 31.0211L1.15745 30.7957L1.09663 30.5696L1.03806 30.3429L0.981764 30.1156L0.927735 29.8875L0.875999 29.6588L0.826543 29.4294L0.779379 29.1995L0.734518 28.9691L0.691961 28.7382L0.651719 28.5066L0.613804 28.2746L0.578204 28.0422L0.544943 27.8092L0.514019 27.5758L0.485446 27.3421L0.459212 27.108L0.435327 26.8735L0.413804 26.6388L0.394643 26.4036L0.377844 26.1682L0.363418 25.9325L0.351365 25.6966L0.341685 25.4605L0.334379 25.2243L0.329458 24.9878L0.326933 24.7512L0.326782 24.5145ZM22.8712 7.17918L22.8182 2.62894L22.7678 2.63388L22.5365 2.65889L22.3058 2.68617L22.0752 2.71576L21.8456 2.74755L21.6161 2.78166L21.387 2.81805L21.1585 2.85667L20.9302 2.8976L20.7031 2.94065L20.4757 2.98611L20.2499 3.03362L20.0237 3.08353L19.7987 3.13555L19.5739 3.18989L19.3502 3.24631L19.1271 3.305L18.9045 3.36588L18.6826 3.42895L18.4618 3.49414L18.2414 3.56158L18.0221 3.6311L17.8033 3.70284L17.5858 3.77656L17.3686 3.85261L17.1525 3.93069L16.9375 4.01085L16.7231 4.09318L16.5099 4.17753L16.2978 4.26391L16.0863 4.35251L15.8758 4.44312L15.6664 4.5358L15.4582 4.63043L15.251 4.72711L15.0449 4.82574L14.8396 4.92655L14.6358 5.02921L14.433 5.13386L14.2314 5.24048L14.0309 5.34908L13.8319 5.45953L13.6336 5.57203L13.4366 5.68647L13.2414 5.80255L13.0468 5.9209L12.854 6.04082L12.6625 6.1626L12.472 6.28639L12.2829 6.41198L12.0952 6.5394L11.9093 6.66833L11.7241 6.79953L11.5408 6.93215L11.3588 7.06659L11.1781 7.20288L10.9991 7.34078L10.8217 7.48034L10.6453 7.62187L10.4709 7.76474L10.2978 7.90949L10.1263 8.05581L9.95634 8.20383L9.78812 8.35327L9.62115 8.5046L9.45608 8.65728L9.29243 8.81172L9.13067 8.96746L8.97039 9.12489L8.81189 9.28374L8.655 9.44416L8.49964 9.60623L8.34632 9.76942L8.19471 9.93401L8.04446 10.1005L7.89629 10.2681L7.74994 10.4369L7.60508 10.6074L7.46233 10.779L7.32116 10.9521L7.1819 11.1265L7.04445 11.3022L6.9088 11.4791L6.77515 11.6572L6.64324 11.8366L6.51315 12.0174L6.38515 12.1991L6.25887 12.3823L6.13459 12.5664L6.01224 12.7517L5.89172 12.9382L5.77324 13.1257L5.6567 13.3142L5.54212 13.5039L5.42958 13.6946L5.3189 13.8864L5.2102 14.0792L5.10365 14.2728L4.999 14.4675L4.89635 14.6632L4.79579 14.8597L4.6972 15.0572L4.60073 15.2554L4.50628 15.4545L4.4139 15.6545L4.32354 15.8554L4.23532 16.0569L4.1491 16.2593L4.06499 16.4625L3.98303 16.6662L3.90311 16.8708L3.82529 17.0761L3.74962 17.282L3.67603 17.4885L3.60462 17.6956L3.53527 17.9035L3.46807 18.1118L3.40303 18.3208L3.34013 18.5301L3.27933 18.7402L3.22073 18.9506L3.16427 19.1615L3.10996 19.3728L3.0578 19.5847L3.00782 19.7969L2.96001 20.0095L2.91435 20.2224L2.87088 20.4358L2.82958 20.6493L2.79044 20.8632L2.75349 21.0774L2.71872 21.2919L2.68613 21.5065L2.65572 21.7213L2.62749 21.9364L2.60145 22.1516L2.57758 22.367L2.55591 22.5825L2.53642 22.7981L2.51911 23.0137L2.50399 23.2295L2.49105 23.4453L2.48029 23.6609L2.47172 23.8767L2.46532 24.0924L2.46111 24.3081L2.45906 24.5237L2.4592 24.7392L2.4615 24.9546L2.46598 25.1699L2.47262 25.385L2.48143 25.5998L2.49241 25.8146L2.50554 26.029L2.52082 26.2432L2.53826 26.4571L2.55785 26.6708L2.57957 26.8842L2.60345 27.0972L2.62945 27.3099L2.65758 27.5222L2.68784 27.7341L2.72023 27.9456L2.75471 28.1566L2.79132 28.3672L2.83003 28.5773L2.87083 28.7868L2.91373 28.996L2.9587 29.2045L3.00576 29.4125L3.05489 29.6199L3.10608 29.8267L3.15934 30.033L3.21463 30.2384L3.27198 30.4433L3.33136 30.6475L3.39277 30.851L3.45619 31.0538L3.52161 31.2558L3.58904 31.457L3.65847 31.6575L3.72988 31.8572L3.80325 32.056L3.87862 32.2541L3.95591 32.4512L4.03515 32.6475L4.11634 32.8429L4.19944 33.0373L4.28448 33.2308L4.3714 33.4235L4.46023 33.615L4.55093 33.8057L4.64351 33.9952L4.73794 34.1839L4.83424 34.3714L4.93236 34.5579L5.03232 34.7433L5.13408 34.9276L5.23765 35.1108L5.343 35.2929L5.45015 35.4737L5.55901 35.6534L5.6697 35.832L5.78207 36.0093L5.8962 36.1855L6.01204 36.3604L6.12956 36.534L6.24876 36.7064L6.36967 36.8776L6.4922 37.0474L6.61641 37.2159L6.7422 37.383L6.86967 37.5489L6.99867 37.7132L7.1293 37.8763L7.26153 38.0381L7.39524 38.1984L7.53054 38.3572L7.66735 38.5146L7.80571 38.6706L7.94553 38.8251L8.0868 38.9781L8.22957 39.1296L8.37377 39.2797L8.51945 39.4283L8.66651 39.5752L8.815 39.7207L8.96483 39.8645L9.11603 40.0069L9.26864 40.1477L9.42254 40.2868L9.57768 40.4242L9.73425 40.5601L9.89212 40.6944L10.051 40.827L10.2115 40.958L10.373 41.0872L10.5357 41.2148L10.6996 41.3408L10.8648 41.465L11.0311 41.5875L11.1985 41.7083L11.367 41.8273L11.5367 41.9446L11.7074 42.0601L11.8793 42.1739L12.0521 42.2859L12.226 42.3961L12.401 42.5046L12.5768 42.6112L12.7537 42.716L12.9315 42.8189L13.1103 42.9201L13.2899 43.0194L13.4706 43.1169L13.652 43.2125L13.8343 43.3063L14.0175 43.3981L14.2016 43.4882L14.3863 43.5764L14.5719 43.6626L14.7582 43.7469L14.9453 43.8294L15.1331 43.9099L15.3217 43.9886L15.5109 44.0653L15.7007 44.14L15.8913 44.2129L16.0823 44.2838L16.2741 44.3527L16.4665 44.4197L16.6594 44.4848L16.8528 44.5479L17.0467 44.609L17.2413 44.6682L17.4362 44.7254L17.6316 44.7806L17.8275 44.8339L18.0238 44.8852L18.2205 44.9345L18.4175 44.9818L18.615 45.0272L18.8128 45.0704L19.0108 45.1118L19.2093 45.1511L19.408 45.1885L19.607 45.2238L19.8061 45.2571L20.0055 45.2885L20.2052 45.3178L20.4051 45.3451L20.6049 45.3705L20.805 45.3938L21.0052 45.415L21.2056 45.4344L21.406 45.4517L21.6065 45.467L21.8069 45.4803L22.0075 45.4916L22.208 45.5008L22.4084 45.5082L22.6089 45.5135L22.8093 45.5167L23.0096 45.518L23.2098 45.5173L23.4099 45.5145L23.6097 45.5099L23.8095 45.5032L24.0091 45.4946L24.2085 45.4839L24.4076 45.4713L24.6065 45.4568L24.8053 45.4402L25.0036 45.4216L25.2016 45.4011L25.3994 45.3786L25.5967 45.3543L25.7938 45.3279L25.9904 45.2996L26.1867 45.2693L26.3825 45.2372L26.5779 45.203L26.7729 45.167L26.9673 45.129L27.1613 45.0892L27.3547 45.0474L27.5476 45.0038L27.7399 44.9581L27.9318 44.9106L28.1229 44.8614L28.3135 44.8101L28.5033 44.757L28.6927 44.702L28.8813 44.6452L29.0693 44.5866L29.2565 44.5262L29.4431 44.4638L29.6289 44.3997L29.8138 44.3338L29.9982 44.266L30.1817 44.1965L30.3643 44.1251L30.5462 44.052L30.7271 43.9772L30.9072 43.9005L31.0864 43.8222L31.2648 43.742L31.4421 43.6603L31.6187 43.5767L31.7943 43.4914L31.9688 43.4045L32.1425 43.3158L32.315 43.2255L32.4866 43.1335L32.6573 43.0398L32.8267 42.9446L32.9951 42.8477L33.1624 42.7492L33.3289 42.649L33.4939 42.5474L33.6581 42.4439L33.8209 42.3391L33.9826 42.2326L34.1433 42.1246L34.3028 42.0149L34.4608 41.9041L34.6177 41.7915L34.7735 41.6774L34.928 41.5619L35.0813 41.4448L35.2331 41.3265L35.384 41.2065L35.5333 41.0852L35.6813 40.9625L35.8282 40.8383L35.9736 40.7127L36.1176 40.5859L36.2603 40.4575L36.4015 40.328L36.5415 40.1971L36.6801 40.0648L36.817 39.9314L36.9528 39.7964L37.087 39.6603L37.2198 39.523L37.3511 39.3843L37.4808 39.2446L37.609 39.1038L37.7361 38.9612L37.8613 38.818L37.9852 38.6734L38.1073 38.5278L38.2281 38.3808L38.3472 38.233L38.4647 38.084L38.5808 37.9338L38.6952 37.7827L38.8081 37.6304L38.9192 37.4772L39.029 37.3229L39.1372 37.1675L39.2433 37.0115L39.3481 36.8542L39.451 36.6962L39.5525 36.537L39.6524 36.3768L39.7504 36.2161L39.8467 36.0544L39.9415 35.8915L40.0344 35.7283L40.1257 35.5639L40.2154 35.3986L40.3031 35.233L40.3893 35.0661L40.4738 34.8985L40.5563 34.7308L40.6372 34.5617L40.7165 34.392L40.7938 34.2218L40.8695 34.0509L40.9433 33.8793L41.0153 33.7072L41.0857 33.5342L41.1543 33.3607L41.2209 33.1871L41.2858 33.0122L41.3489 32.8373L41.4103 32.6616L41.4699 32.4855L41.5276 32.3088L41.5833 32.1321L41.6375 31.9541L41.6897 31.7764L41.74 31.598L41.7887 31.4195L41.8354 31.2402L41.8802 31.0609L41.9234 30.881L41.9646 30.7008L42.004 30.5205L42.0416 30.3396L42.0772 30.1589L42.111 29.9774L42.143 29.7964L42.1732 29.6146L42.2014 29.4327L42.2278 29.2508L42.2525 29.0686L42.2752 28.8866L42.2961 28.7038L42.3151 28.5216L42.3323 28.3389L42.3476 28.1566L42.361 27.9736L42.3727 27.7914L42.3825 27.6086L42.3904 27.4256L42.3964 27.2432L42.4007 27.061L42.403 26.8782L42.4036 26.6957L42.4023 26.5135L42.3992 26.3314L42.3942 26.1493L42.3873 25.9679L42.3787 25.7857L42.3683 25.6044L42.3559 25.4232L42.3419 25.2425L42.3259 25.0614L42.3082 24.8812L42.2887 24.7008L42.2673 24.5211L42.2441 24.3414L42.2192 24.1624L42.1924 23.9832L42.1639 23.8049L42.1336 23.6271L42.1015 23.4493L42.0675 23.272L42.0319 23.0954L41.9945 22.9188L41.9555 22.7434L41.9144 22.5678L41.872 22.3933L41.8274 22.2187L41.7813 22.0453L41.7335 21.8721L41.6839 21.6994L41.6328 21.5276L41.5798 21.3565L41.525 21.1855L41.4688 21.0158L41.4107 20.8462L41.3511 20.6777L41.2897 20.5095L41.2267 20.3425L41.1619 20.1758L41.0956 20.01L41.0278 19.8452L40.9583 19.6812L40.8869 19.5174L40.8144 19.3551L40.7399 19.193L40.664 19.0324L40.5865 18.8723L40.5073 18.7129L40.4268 18.5548L40.3445 18.3974L40.2606 18.2407L40.1757 18.0855L40.0888 17.9307L40.0006 17.7771L39.9107 17.6243L39.8197 17.4731L39.7268 17.3221L39.6328 17.1726L39.537 17.0239L39.44 16.8764L39.3417 16.7302L39.2416 16.5846L39.1403 16.4403L39.0377 16.297L38.9336 16.1551L38.8282 16.014L38.7214 15.8743L38.6133 15.7356L38.5038 15.5981L38.393 15.4618L38.2809 15.3266L38.1675 15.1927L38.0529 15.06L37.9371 14.9286L37.82 14.7984L37.7013 14.6692L37.582 14.5418L37.4608 14.4151L37.339 14.2902L37.2158 14.1662L37.0916 14.0438L36.9657 13.9223L36.8393 13.8027L36.7114 13.684L36.5823 13.5668L36.4526 13.4511L36.3216 13.3367L36.1891 13.2234L36.0559 13.1117L35.9218 13.0014L35.7865 12.8926L35.6501 12.785L35.5131 12.6793L35.3745 12.5743L35.2355 12.4714L35.0953 12.3697L34.954 12.2694L34.8122 12.1707L34.6689 12.0732L34.5256 11.9777L34.3806 11.8833L34.2352 11.7905L34.0886 11.6992L33.9414 11.6094L33.7934 11.5212L33.6449 11.4347L33.4949 11.3492L33.3449 11.2658L33.1937 11.1837L33.0419 11.1032L32.8895 11.0244L32.7361 10.9469L32.5822 10.8711L32.4277 10.797L32.2724 10.7243L32.1167 10.6534L31.9603 10.5839L31.7982 10.5139L31.6458 10.45L31.4872 10.3852L31.3289 10.3225L31.1693 10.2609L31.0097 10.2013L30.8493 10.1432L30.6887 10.0868L30.5273 10.0319L30.3658 9.9788L30.2037 9.92728L30.0411 9.8774L29.8785 9.8293L29.7151 9.78269L29.5512 9.73769L29.3875 9.69452L29.2235 9.65299L29.0584 9.61298L28.8939 9.57482L28.7286 9.53819L28.5633 9.50332L28.3974 9.47004L28.2317 9.43851L28.0656 9.40861L27.8995 9.38045L27.7327 9.35386L27.5663 9.32903L27.3996 9.30584L27.2327 9.28432L27.0657 9.26449L26.8988 9.24636L26.7317 9.22988L26.5645 9.21509L26.3972 9.20196L26.2298 9.19049L26.0629 9.18073L25.8958 9.17264L25.7282 9.1662L25.5615 9.16145L25.3944 9.15835L25.2275 9.15693L25.0603 9.15717L25.0268 9.15756L25.0795 13.6747L25.1743 13.6742L25.2963 13.6749L25.4184 13.6768L25.5405 13.68L25.6628 13.6844L25.7851 13.6901L25.9073 13.6969L26.0297 13.705L26.1521 13.7143L26.2745 13.7248L26.3969 13.7366L26.5192 13.7496L26.6416 13.7639L26.7638 13.7794L26.886 13.7961L27.0081 13.8142L27.1302 13.8333L27.2521 13.8537L27.374 13.8755L27.4957 13.8984L27.6173 13.9226L27.7388 13.9481L27.8601 13.9746L27.9812 14.0025L28.1021 14.0317L28.2229 14.0621L28.3433 14.0937L28.4636 14.1265L28.5836 14.1605L28.7035 14.1959L28.823 14.2324L28.9423 14.2701L29.0612 14.3091L29.1799 14.3493L29.2983 14.3908L29.4163 14.4334L29.534 14.4773L29.6513 14.5223L29.7683 14.5686L29.8849 14.6161L30.0011 14.6648L30.1169 14.7148L30.2323 14.7659L30.3472 14.8182L30.4617 14.8716L30.5757 14.9264L30.6894 14.9823L30.8025 15.0393L30.9151 15.0976L31.0272 15.1571L31.1388 15.2176L31.2499 15.2794L31.3604 15.3422L31.4704 15.4063L31.5798 15.4715L31.6887 15.538L31.7969 15.6054L31.9045 15.6741L32.0116 15.7439L32.118 15.8149L32.2238 15.8868L32.3289 15.96L32.4334 16.0343L32.5372 16.1096L32.6403 16.1861L32.7427 16.2637L32.8445 16.3423L32.9453 16.4221L33.0456 16.5029L33.1451 16.5847L33.2438 16.6677L33.3418 16.7517L33.4391 16.8367L33.5355 16.9227L33.6311 17.0098L33.726 17.098L33.8198 17.1871L33.913 17.2772L34.0053 17.3684L34.0967 17.4605L34.1874 17.5537L34.2771 17.6479L34.3659 17.7429L34.4538 17.839L34.5408 17.936L34.6269 18.034L34.7121 18.1328L34.7963 18.2326L34.8796 18.3333L34.962 18.4349L35.0433 18.5375L35.1237 18.6409L35.203 18.7453L35.2814 18.8505L35.3588 18.9566L35.4351 19.0634L35.5105 19.1712L35.5847 19.2798L35.658 19.3893L35.7301 19.4995L35.8012 19.6105L35.8713 19.7224L35.9403 19.835L36.0082 19.9484L36.075 20.0625L36.1406 20.1775L36.2052 20.2931L36.2686 20.4095L36.3308 20.5266L36.392 20.6445L36.452 20.763L36.5108 20.8823L36.5685 21.0022L36.625 21.1228L36.6803 21.2439L36.7344 21.3659L36.7873 21.4883L36.8391 21.6114L36.8896 21.7352L36.9389 21.8595L36.987 21.9844L37.0337 22.1098L37.0793 22.2359L37.1237 22.3625L37.1668 22.4896L37.2087 22.6173L37.2492 22.7455L37.2885 22.8741L37.3266 23.0033L37.3633 23.1329L37.3988 23.263L37.4329 23.3936L37.4658 23.5246L37.4973 23.656L37.5276 23.7878L37.5566 23.92L37.5841 24.0526L37.6104 24.1856L37.6353 24.3189L37.6589 24.4526L37.6813 24.5867L37.7022 24.7209L37.7218 24.8556L37.74 24.9905L37.7569 25.1257L37.7725 25.2612L37.7866 25.397L37.7994 25.5329L37.8109 25.6692L37.8209 25.8056L37.8296 25.9422L37.8368 26.0789L37.8428 26.2159L37.8473 26.3531L37.8504 26.4903L37.8522 26.6278L37.8525 26.7653L37.8515 26.9029L37.849 27.0406L37.8452 27.1784L37.84 27.3163L37.8333 27.4541L37.8253 27.592L37.8159 27.7301L37.8051 27.868L37.7927 28.0059L37.7791 28.1438L37.764 28.2816L37.7476 28.4195L37.7297 28.5572L37.7104 28.6949L37.6897 28.8325L37.6675 28.9699L37.644 29.1072L37.619 29.2444L37.5927 29.3815L37.5649 29.5184L37.5357 29.6551L37.5053 29.7916L37.4733 29.9279L37.4399 30.0639L37.4051 30.1998L37.3689 30.3354L37.3313 30.4707L37.2924 30.6057L37.252 30.7404L37.2102 30.8749L37.1669 31.009L37.1224 31.1427L37.0764 31.2761L37.0292 31.4092L36.9804 31.5418L36.9303 31.674L36.8789 31.8059L36.8261 31.9373L36.7719 32.0684L36.7162 32.1989L36.6593 32.329L36.6011 32.4586L36.5414 32.5877L36.4804 32.7163L36.4181 32.8444L36.3543 32.9719L36.2893 33.0989L36.223 33.2253L36.1552 33.3511L36.0863 33.4764L36.016 33.6011L35.9443 33.7251L35.8714 33.8486L35.7972 33.9712L35.7216 34.0934L35.6448 34.2148L35.5667 34.3356L35.4872 34.4556L35.4066 34.5749L35.3247 34.6936L35.2415 34.8114L35.1571 34.9285L35.0714 35.0449L34.9845 35.1605L34.8963 35.2753L34.807 35.3892L34.7164 35.5024L34.6246 35.6147L34.5316 35.7262L34.4374 35.8369L34.342 35.9467L34.2454 36.0555L34.1477 36.1635L34.0488 36.2706L33.9489 36.3768L33.8477 36.482L33.7454 36.5864L33.6418 36.6897L33.5374 36.7921L33.4316 36.8935L33.3249 36.9939L33.2171 37.0934L33.1081 37.1917L32.9981 37.2891L32.887 37.3855L32.775 37.4808L32.6618 37.5751L32.5477 37.6682L32.4324 37.7603L32.3162 37.8513L32.199 37.9412L32.0808 38.03L31.9615 38.1177L31.8415 38.2043L31.7204 38.2896L31.5983 38.3739L31.4752 38.457L31.3513 38.5389L31.2265 38.6196L31.1009 38.6991L30.9742 38.7773L30.8468 38.8545L30.7183 38.9304L30.5892 39.005L30.4591 39.0784L30.3283 39.1506L30.1966 39.2215L30.064 39.2911L29.9307 39.3594L29.7967 39.4264L29.6619 39.4922L29.5262 39.5566L29.3899 39.6198L29.2528 39.6816L29.1151 39.7421L28.9765 39.8012L28.8374 39.859L28.6975 39.9154L28.557 39.9705L28.4159 40.0243L28.274 40.0766L28.1316 40.1276L27.9885 40.1771L27.845 40.2253L27.7007 40.272L27.556 40.3174L27.4107 40.3613L27.2648 40.4038L27.1184 40.4449L26.9715 40.4845L26.8241 40.5227L26.6762 40.5594L26.5279 40.5947L26.379 40.6286L26.2298 40.6609L26.0801 40.6918L25.93 40.7212L25.7796 40.7492L25.6287 40.7757L25.4775 40.8006L25.326 40.824L25.1741 40.846L25.0218 40.8664L24.8692 40.8855L24.7165 40.9028L24.5634 40.9188L24.41 40.9332L24.2565 40.9461L24.1027 40.9574L23.9486 40.9673L23.7944 40.9755L23.64 40.9823L23.4854 40.9875L23.3306 40.9911L23.1758 40.9933L23.0207 40.9938L22.8656 40.9929L22.7106 40.9903L22.5552 40.9863L22.3999 40.9806L22.2446 40.9734L22.0892 40.9647L21.9339 40.9544L21.7784 40.9426L21.6231 40.9291L21.4678 40.9141L21.3125 40.8975L21.1573 40.8795L21.0022 40.8598L20.8471 40.8386L20.6923 40.8157L20.5376 40.7914L20.3829 40.7655L20.2284 40.738L20.0742 40.709L19.9201 40.6784L19.7663 40.6462L19.6127 40.6125L19.4593 40.5773L19.3062 40.5404L19.1534 40.502L19.0008 40.462L18.8485 40.4205L18.6966 40.3775L18.5451 40.333L18.3939 40.2869L18.243 40.2393L18.0926 40.19L17.9426 40.1393L17.7929 40.087L17.6437 40.0333L17.495 39.978L17.3467 39.9211L17.199 39.8627L17.0517 39.8029L16.9049 39.7415L16.7586 39.6786L16.613 39.6143L16.4679 39.5484L16.3233 39.481L16.1794 39.4122L16.036 39.3419L15.8933 39.27L15.7511 39.1968L15.6098 39.1221L15.469 39.0459L15.3289 38.9682L15.1895 38.8891L15.0509 38.8085L14.9129 38.7266L14.7757 38.6432L14.6393 38.5584L14.5036 38.4722L14.3688 38.3845L14.2347 38.2955L14.1015 38.205L13.9691 38.1132L13.8376 38.02L13.7069 37.9255L13.5771 37.8295L13.4482 37.7323L13.3201 37.6336L13.193 37.5336L13.0669 37.4323L12.9417 37.3296L12.8175 37.2257L12.6942 37.1204L12.5719 37.014L12.4507 36.9061L12.3304 36.797L12.2111 36.6866L12.093 36.575L11.9759 36.4622L11.8598 36.348L11.7448 36.2327L11.6311 36.1161L11.5183 35.9983L11.4066 35.8794L11.2961 35.7592L11.1869 35.638L11.0787 35.5154L10.9716 35.3918L10.8659 35.267L10.7612 35.1411L10.6579 35.0141L10.5556 34.8859L10.4547 34.7567L10.355 34.6263L10.2566 34.4949L10.1595 34.3624L10.0635 34.229L9.96891 34.0944L9.87572 33.9588L9.7837 33.8222L9.69307 33.6847L9.60379 33.5461L9.51585 33.4066L9.42925 33.2661L9.34405 33.1246L9.26021 32.9822L9.17777 32.8389L9.09673 32.6946L9.0171 32.5496L8.93889 32.4036L8.86212 32.2568L8.78678 32.1091L8.71289 31.9605L8.64047 31.8111L8.56951 31.6609L8.50004 31.51L8.43205 31.3581L8.36555 31.2057L8.30056 31.0524L8.23708 30.8983L8.17512 30.7436L8.11471 30.5882L8.05582 30.4319L7.99847 30.2751L7.94268 30.1177L7.88845 29.9594L7.83579 29.8007L7.78471 29.6413L7.73521 29.4813L7.6873 29.3208L7.64098 29.1596L7.59627 28.9979L7.55317 28.8357L7.5117 28.6728L7.47184 28.5096L7.4336 28.3458L7.39701 28.1815L7.36205 28.0168L7.32874 27.8517L7.29708 27.6861L7.26708 27.5201L7.23874 27.3537L7.21207 27.1869L7.18707 27.0198L7.16375 26.8523L7.14211 26.6845L7.12215 26.5163L7.10389 26.3479L7.08731 26.1793L7.07243 26.0103L7.05926 25.841L7.04779 25.6717L7.03802 25.502L7.02997 25.3322L7.02363 25.1622L7.01901 24.992L7.0161 24.8217L7.01491 24.6512L7.01546 24.4807L7.01772 24.31L7.02172 24.1393L7.02743 23.9686L7.03489 23.7977L7.04408 23.6269L7.05499 23.456L7.06765 23.2852L7.08203 23.1144L7.09815 22.9437L7.11602 22.7729L7.13562 22.6024L7.15695 22.4319L7.18002 22.2614L7.20483 22.0911L7.23137 21.9211L7.25964 21.7511L7.28966 21.5814L7.32141 21.4118L7.35489 21.2425L7.3901 21.0735L7.42705 20.9046L7.46572 20.7361L7.50611 20.5678L7.54823 20.3998L7.59207 20.2323L7.63763 20.0649L7.68491 19.898L7.73392 19.7315L7.78462 19.5654L7.83704 19.3995L7.89116 19.2343L7.94698 19.0695L8.00451 18.9051L8.06373 18.7412L8.12463 18.5777L8.18722 18.4149L8.2515 18.2525L8.31745 18.0907L8.38508 17.9295L8.45437 17.7688L8.52534 17.6087L8.59795 17.4493L8.67222 17.2905L8.74813 17.1323L8.82569 16.9749L8.90489 16.8181L8.98571 16.6621L9.06815 16.5067L9.15221 16.3521L9.23789 16.1982L9.32515 16.0451L9.41403 15.8929L9.50449 15.7413L9.59653 15.5907L9.69016 15.4408L9.78532 15.2918L9.88212 15.1437L9.98031 14.9964L10.0802 14.8501L10.1816 14.7047L10.2844 14.5601L10.3889 14.4166L10.4948 14.274L10.6023 14.1324L10.7112 13.9918L10.8216 13.8522L10.9334 13.7137L11.0467 13.5761L11.1615 13.4396L11.2777 13.3042L11.3953 13.1699L11.5145 13.0368L11.6349 12.9046L11.7568 12.7737L11.8801 12.6438L12.0047 12.5152L12.1307 12.3877L12.2581 12.2614L12.3869 12.1363L12.517 12.0124L12.6483 11.8898L12.7811 11.7683L12.9151 11.6482L13.0503 11.5293L13.1869 11.4118L13.3247 11.2955L13.4638 11.1805L13.6041 11.0668L13.7456 10.9545L13.8884 10.8435L14.0323 10.734L14.1775 10.6257L14.3237 10.5189L14.4711 10.4135L14.6198 10.3095L14.7696 10.2069L14.9203 10.1058L15.0724 10.0061L15.2254 9.90789L15.3795 9.81115L15.5347 9.71588L15.691 9.62212L15.8481 9.52987L16.0065 9.43912L16.1657 9.34991L16.3259 9.26225L16.4872 9.17615L16.6494 9.0916L16.8125 9.00862L16.9765 8.92723L17.1415 8.84744L17.3074 8.76925L17.4741 8.69267L17.6418 8.6177L17.8102 8.54438L17.9795 8.47271L18.1496 8.40267L18.3204 8.3343L18.4921 8.2676L18.6645 8.20258L18.8377 8.13924L19.0117 8.0776L19.1863 8.01766L19.3616 7.95943L19.5375 7.90293L19.7142 7.84814L19.8915 7.79509L20.0695 7.74378L20.248 7.69422L20.4272 7.64641L20.6069 7.60037L20.7872 7.5561L20.968 7.51361L21.1494 7.47289L21.3312 7.43396L21.5135 7.39683L21.6964 7.3615L21.8797 7.32797L22.0634 7.29625L22.2475 7.26635L22.432 7.23827L22.6169 7.21202L22.8021 7.1876L22.8712 7.17918ZM22.9494 13.879L22.8961 9.31225L22.7443 9.3338L22.5811 9.35866L22.4177 9.38516L22.2554 9.41318L22.0929 9.44292L21.9312 9.47418L21.7698 9.50704L21.6091 9.54145L21.4486 9.57748L21.2885 9.61511L21.1289 9.65429L20.97 9.69501L20.8112 9.73737L20.6587 9.77967L20.4961 9.82658L20.3392 9.8735L20.183 9.92196L20.0275 9.97183L19.8724 10.0234L19.7179 10.0764L19.5641 10.1309L19.4112 10.1868L19.2588 10.2444L19.107 10.3032L18.9559 10.3637L18.806 10.4255L18.656 10.489L18.5072 10.5538L18.3591 10.6199L18.212 10.6875L18.0653 10.7567L17.9195 10.8272L17.7748 10.899L17.6305 10.9724L17.4876 11.0469L17.345 11.1232L17.2037 11.2003L17.0627 11.2794L16.9231 11.3593L16.7844 11.4407L16.6465 11.5236L16.5095 11.6076L16.3733 11.6931L16.2385 11.7797L16.1042 11.8677L15.9712 11.9569L15.8392 12.0473L15.7081 12.1392L15.5778 12.2323L15.449 12.3262L15.3209 12.4219L15.1938 12.5185L15.068 12.6164L14.9432 12.7153L14.8193 12.8156L14.6968 12.9169L14.5754 13.0194L14.4549 13.1233L14.3358 13.2279L14.2176 13.3339L14.1006 13.4409L13.9848 13.549L13.8704 13.658L13.7567 13.7684L13.6447 13.8795L13.5337 13.9918L13.4237 14.1052L13.3152 14.2195L13.2078 14.335L13.1017 14.4513L12.9969 14.5685L12.8932 14.6868L12.7907 14.8062L12.69 14.9261L12.5902 15.0473L12.4916 15.1693L12.3945 15.2921L12.2987 15.4158L12.204 15.5406L12.1108 15.6659L12.0189 15.7923L11.9284 15.9194L11.8392 16.0474L11.7515 16.176L11.665 16.3055L11.5799 16.4359L11.4961 16.567L11.4138 16.6986L11.333 16.8311L11.2534 16.9645L11.1752 17.0983L11.0986 17.2329L11.0232 17.3682L10.9494 17.5039L10.8769 17.6405L10.8057 17.7779L10.7363 17.9154L10.6681 18.0539L10.6014 18.1929L10.5362 18.3322L10.4724 18.4724L10.4101 18.6129L10.3492 18.754L10.2898 18.8956L10.232 19.0377L10.1755 19.1802L10.1205 19.3233L10.067 19.4668L10.0151 19.6106L9.96449 19.755L9.91562 19.8996L9.86804 20.0447L9.82209 20.1902L9.77753 20.336L9.7346 20.4821L9.69307 20.6285L9.65316 20.7752L9.61466 20.9223L9.57771 21.0696L9.54229 21.2172L9.50839 21.365L9.47599 21.513L9.4451 21.6613L9.41577 21.8097L9.38793 21.9583L9.36161 22.1072L9.33685 22.2561L9.31357 22.4053L9.29184 22.5543L9.27161 22.7037L9.25293 22.8531L9.23576 23.0026L9.22011 23.1521L9.20599 23.3017L9.19339 23.4513L9.18231 23.6008L9.17275 23.7505L9.1647 23.9001L9.15817 24.0496L9.15317 24.1991L9.14967 24.3485L9.14769 24.4979L9.14721 24.6473L9.14825 24.7964L9.15079 24.9455L9.15484 25.0944L9.16038 25.243L9.16743 25.3917L9.17597 25.5402L9.186 25.6882L9.19753 25.8363L9.21053 25.984L9.22503 26.1315L9.241 26.2788L9.25844 26.4258L9.27737 26.5726L9.29776 26.7189L9.31962 26.8651L9.34292 27.0107L9.36769 27.1562L9.39391 27.3013L9.42156 27.4458L9.45067 27.5903L9.4812 27.7341L9.51318 27.8777L9.54655 28.0206L9.58138 28.1632L9.61761 28.3054L9.65526 28.4471L9.69423 28.5882L9.73472 28.7289L9.77648 28.8691L9.81976 29.0088L9.86432 29.148L9.91027 29.2865L9.95762 29.4244L10.0063 29.5619L10.0563 29.6987L10.1077 29.835L10.1604 29.9706L10.2144 30.1055L10.2698 30.2399L10.3264 30.3736L10.3845 30.5065L10.4437 30.6389L10.5043 30.7704L10.5662 30.9014L10.6293 31.0316L10.6937 31.161L10.7593 31.2898L10.8262 31.4178L10.8944 31.545L10.9637 31.6714L11.0343 31.7971L11.1061 31.9219L11.1792 32.0458L11.2534 32.1691L11.3288 32.2914L11.4054 32.4129L11.4832 32.5337L11.5619 32.6533L11.6421 32.7723L11.7232 32.8902L11.8056 33.0074L11.889 33.1235L11.9736 33.2388L12.0592 33.353L12.146 33.4665L12.2337 33.5789L12.3226 33.6903L12.4125 33.8008L12.5035 33.9104L12.5955 34.0188L12.6886 34.1264L12.7826 34.2328L12.8776 34.3383L12.9736 34.4427L13.0706 34.5461L13.1686 34.6484L13.2676 34.7497L13.3674 34.8499L13.4683 34.9491L13.5701 35.0472L13.6726 35.1441L13.7762 35.24L13.8806 35.3347L13.9859 35.4283L14.0921 35.5208L14.1991 35.6122L14.307 35.7025L14.4156 35.7915L14.5251 35.8794L14.6354 35.9662L14.7465 36.0518L14.8584 36.1362L14.9709 36.2194L15.0843 36.3014L15.1984 36.3823L15.3132 36.4619L15.4289 36.5404L15.5451 36.6176L15.662 36.6936L15.7796 36.7684L15.8978 36.8419L16.0167 36.9142L16.1363 36.9852L16.2564 37.055L16.3773 37.1235L16.4985 37.1908L16.6205 37.2568L16.743 37.3216L16.866 37.3849L16.9897 37.4472L17.1139 37.5081L17.2385 37.5678L17.3636 37.626L17.4893 37.6831L17.6153 37.7388L17.7419 37.7931L17.869 37.8463L17.9965 37.8981L18.1242 37.9485L18.2525 37.9977L18.3812 38.0456L18.5102 38.0921L18.6396 38.1373L18.7694 38.1812L18.8995 38.2237L19.0299 38.2649L19.1607 38.3047L19.2917 38.3433L19.4229 38.3805L19.5545 38.4163L19.6863 38.4509L19.8184 38.484L19.9506 38.5158L20.0831 38.5463L20.2159 38.5755L20.3487 38.6033L20.4817 38.6296L20.615 38.6547L20.7483 38.6784L20.8818 38.7009L21.0154 38.7218L21.149 38.7415L21.2828 38.7599L21.4166 38.7769L21.5505 38.7925L21.6844 38.8068L21.8185 38.8197L21.9525 38.8312L22.0865 38.8414L22.2205 38.8504L22.3544 38.8578L22.4883 38.8641L22.6224 38.8689L22.7562 38.8725L22.8898 38.8746L23.0235 38.8754L23.1571 38.875L23.2905 38.8731L23.4238 38.87L23.5569 38.8655L23.69 38.8597L23.8228 38.8525L23.9554 38.8441L24.0878 38.8343L24.2201 38.8232L24.352 38.8108L24.4838 38.7971L24.6154 38.7821L24.7466 38.7658L24.8776 38.7482L25.0083 38.7294L25.1387 38.7092L25.2688 38.6877L25.3984 38.665L25.5278 38.6409L25.6569 38.6156L25.7855 38.5891L25.914 38.5612L26.0417 38.5321L26.1692 38.5019L26.2963 38.4702L26.423 38.4375L26.5492 38.4034L26.675 38.3681L26.8003 38.3316L26.9251 38.2939L27.0493 38.255L27.1731 38.2148L27.2966 38.1734L27.4193 38.1309L27.5416 38.0872L27.6633 38.0423L27.7844 37.9962L27.9049 37.9489L28.0248 37.9004L28.1443 37.8508L28.2631 37.8001L28.3812 37.7482L28.4988 37.6953L28.6156 37.6411L28.732 37.5858L28.8476 37.5295L28.9623 37.4722L29.0768 37.4134L29.1902 37.3538L29.3032 37.293L29.4151 37.2313L29.5266 37.1684L29.6373 37.1045L29.7471 37.0395L29.8564 36.9734L29.9648 36.9064L30.0723 36.8383L30.1793 36.7692L30.2852 36.6992L30.3905 36.6281L30.4951 36.5559L30.5986 36.4829L30.7012 36.409L30.8034 36.3338L30.9044 36.2581L31.0047 36.1811L31.1041 36.1032L31.2023 36.0247L31.3002 35.9449L31.397 35.8643L31.4925 35.783L31.5876 35.7004L31.6815 35.6173L31.7745 35.5334L31.8668 35.4482L31.9578 35.3626L32.0481 35.276L32.1375 35.1885L32.2256 35.1004L32.313 35.0112L32.3995 34.9214L32.4848 34.8308L32.5691 34.7394L32.6525 34.6472L32.735 34.5544L32.8162 34.4609L32.8967 34.3663L32.9759 34.2713L33.0541 34.1756L33.1315 34.0789L33.2075 33.982L33.2827 33.884L33.3568 33.7856L33.4299 33.6863L33.5018 33.5866L33.5725 33.4863L33.6424 33.3851L33.7111 33.2836L33.7787 33.1813L33.8453 33.0784L33.9105 32.9752L33.9749 32.8712L34.0381 32.7666L34.1002 32.6617L34.1611 32.5561L34.2211 32.4499L34.2796 32.3436L34.3373 32.2363L34.3937 32.1289L34.4489 32.021L34.5032 31.9123L34.556 31.8038L34.608 31.6941L34.6585 31.5848L34.7083 31.4743L34.7565 31.364L34.8038 31.2528L34.8499 31.1417L34.8947 31.0302L34.9385 30.9181L34.981 30.8057L35.0222 30.6934L35.0626 30.5803L35.1014 30.467L35.1393 30.3536L35.1759 30.2398L35.2114 30.1256L35.2457 30.0113L35.2787 29.8969L35.3106 29.7821L35.3412 29.6672L35.3708 29.552L35.399 29.4366L35.4261 29.3213L35.4521 29.2053L35.4768 29.0895L35.5004 28.9736L35.5226 28.8576L35.5438 28.7415L35.5637 28.6248L35.5824 28.5086L35.6 28.3921L35.6162 28.2755L35.6314 28.1591L35.6453 28.0424L35.6581 27.9254L35.6696 27.8092L35.6801 27.6921L35.6893 27.5755L35.6972 27.4591L35.7041 27.3423L35.7097 27.2258L35.7141 27.1094L35.7173 26.9926L35.7193 26.8766L35.7203 26.76L35.7199 26.6439L35.7185 26.5277L35.7158 26.412L35.712 26.296L35.707 26.1803L35.7008 26.0651L35.6935 25.9495L35.685 25.8343L35.6755 25.7197L35.6646 25.6047L35.6527 25.4904L35.6395 25.3759L35.6253 25.262L35.61 25.1481L35.5934 25.0345L35.5758 24.9212L35.557 24.8084L35.5371 24.6957L35.5161 24.5835L35.4939 24.4711L35.4706 24.3595L35.4463 24.2483L35.4208 24.1372L35.3942 24.0264L35.3666 23.9165L35.3377 23.8062L35.3079 23.6969L35.277 23.5877L35.245 23.4792L35.212 23.3708L35.1778 23.2629L35.1426 23.1557L35.1064 23.0489L35.069 22.9422L35.0308 22.8364L34.9914 22.7309L34.951 22.626L34.9096 22.5214L34.8671 22.4173L34.8237 22.3141L34.7792 22.2111L34.7338 22.1089L34.6874 22.0072L34.6399 21.9058L34.5914 21.805L34.5422 21.7052L34.4917 21.6055L34.4405 21.5068L34.3883 21.4088L34.335 21.3108L34.281 21.214L34.2259 21.1176L34.1699 21.0219L34.1129 20.9267L34.0553 20.8325L33.9964 20.7385L33.937 20.6457L33.8765 20.5534L33.8152 20.4618L33.7528 20.3706L33.6898 20.2805L33.626 20.1911L33.5611 20.1021L33.4956 20.0142L33.4291 19.9269L33.362 19.8405L33.2939 19.7546L33.225 19.6696L33.1553 19.5853L33.0849 19.5018L33.0138 19.4193L32.9417 19.3373L32.8691 19.2563L32.7956 19.1759L32.7216 19.0968L32.6464 19.0179L32.5709 18.9403L32.4944 18.8631L32.4174 18.7871L32.3398 18.712L32.2614 18.6375L32.1821 18.5639L32.1023 18.4913L32.0219 18.4196L31.9406 18.3484L31.8593 18.2787L31.7768 18.2093L31.6939 18.1411L31.6103 18.0739L31.5261 18.0072L31.4414 17.9418L31.3563 17.8774L31.2703 17.8135L31.1836 17.7506L31.0969 17.689L31.0091 17.6279L30.9214 17.5682L30.8328 17.5091L30.7437 17.451L30.654 17.3938L30.5642 17.3377L30.4734 17.2824L30.3826 17.2283L30.2909 17.1749L30.1994 17.1228L30.107 17.0715L30.0141 17.021L29.9209 16.9716L29.8275 16.9234L29.7335 16.8759L29.6391 16.8294L29.5445 16.7841L29.4497 16.7397L29.3538 16.6961L29.2584 16.6538L29.1623 16.6125L29.0657 16.5719L28.9691 16.5326L28.8723 16.4943L28.775 16.4569L28.6772 16.4204L28.5796 16.3852L28.4814 16.3508L28.3829 16.3175L28.2846 16.2852L28.1859 16.254L28.0871 16.2238L27.9875 16.1945L27.8883 16.1663L27.7888 16.1391L27.6891 16.113L27.5893 16.0879L27.489 16.0637L27.3889 16.0407L27.2889 16.0187L27.1884 15.9977L27.0876 15.9776L26.9874 15.9588L26.8866 15.9408L26.7859 15.9239L26.6848 15.908L26.5843 15.8932L26.483 15.8793L26.3824 15.8666L26.2814 15.8548L26.1804 15.844L26.0795 15.8344L25.9784 15.8256L25.8778 15.8179L25.7766 15.8113L25.6758 15.8056L25.5753 15.801L25.4741 15.7974L25.3737 15.7948L25.2732 15.7932L25.1728 15.7926L25.1041 15.7929L25.1561 20.2547L25.1872 20.2548L25.2449 20.2557L25.3027 20.2571L25.3607 20.259L25.4186 20.2617L25.4767 20.2649L25.5347 20.2687L25.5929 20.2731L25.651 20.2782L25.7093 20.2839L25.7676 20.2902L25.8259 20.297L25.8843 20.3046L25.9426 20.3127L26.001 20.3215L26.0594 20.3309L26.1178 20.341L26.1761 20.3516L26.2345 20.363L26.2928 20.3748L26.3511 20.3874L26.4093 20.4005L26.4676 20.4144L26.5257 20.4288L26.5839 20.4438L26.6419 20.4595L26.6999 20.4758L26.7578 20.4927L26.8156 20.5103L26.8733 20.5285L26.9309 20.5474L26.9885 20.5669L27.0458 20.587L27.1032 20.6077L27.1603 20.6291L27.2173 20.6511L27.2742 20.6737L27.331 20.6969L27.3875 20.7208L27.444 20.7453L27.5003 20.7705L27.5563 20.7962L27.6123 20.8226L27.668 20.8496L27.7235 20.8772L27.7789 20.9054L27.8339 20.9344L27.8888 20.9638L27.9435 20.9939L27.998 21.0247L28.0522 21.056L28.1062 21.0879L28.1598 21.1204L28.2133 21.1536L28.2665 21.1874L28.3194 21.2218L28.372 21.2567L28.4244 21.2922L28.4765 21.3285L28.5282 21.3653L28.5797 21.4026L28.6309 21.4405L28.6817 21.4791L28.7322 21.5182L28.7823 21.5579L28.8322 21.5982L28.8817 21.6391L28.9308 21.6805L28.9796 21.7225L29.028 21.7651L29.0761 21.8082L29.1238 21.8519L29.171 21.8963L29.2179 21.941L29.2643 21.9864L29.3105 22.0324L29.3561 22.0788L29.4014 22.1259L29.4463 22.1734L29.4906 22.2215L29.5346 22.2702L29.5781 22.3193L29.6213 22.369L29.6638 22.4192L29.706 22.4699L29.7477 22.5211L29.7889 22.5728L29.8296 22.6251L29.8699 22.6778L29.9097 22.7311L29.949 22.7847L29.9877 22.839L30.0259 22.8936L30.0637 22.9488L30.1009 23.0044L30.1376 23.0606L30.1738 23.1171L30.2095 23.1742L30.2445 23.2316L30.279 23.2895L30.313 23.3479L30.3464 23.4066L30.3793 23.4658L30.4116 23.5255L30.4433 23.5855L30.4745 23.6461L30.505 23.7069L30.535 23.7681L30.5643 23.8298L30.593 23.892L30.6212 23.9544L30.6488 24.0173L30.6758 24.0805L30.7021 24.1441L30.7278 24.208L30.7528 24.2723L30.7772 24.3369L30.8011 24.4019L30.8242 24.4673L30.8467 24.533L30.8685 24.599L30.8897 24.6653L30.9102 24.7319L30.9301 24.7988L30.9493 24.866L30.9678 24.9336L30.9857 25.0014L31.0029 25.0694L31.0193 25.1379L31.0351 25.2065L31.0503 25.2753L31.0647 25.3446L31.0784 25.4139L31.0913 25.4834L31.1037 25.5534L31.1153 25.6235L31.1262 25.6937L31.1364 25.7642L31.1458 25.8349L31.1545 25.9058L31.1625 25.977L31.1699 26.0482L31.1764 26.1196L31.1822 26.1912L31.1873 26.2631L31.1916 26.3349L31.1952 26.407L31.198 26.4792L31.2002 26.5516L31.2015 26.624L31.2022 26.6966L31.202 26.7691L31.2012 26.8419L31.1995 26.9148L31.1971 26.9878L31.1939 27.0608L31.19 27.1338L31.1853 27.207L31.1799 27.2801L31.1736 27.3534L31.1666 27.4267L31.1589 27.5L31.1503 27.5732L31.141 27.6466L31.131 27.72L31.1202 27.7933L31.1085 27.8666L31.0961 27.9398L31.083 28.0131L31.069 28.0864L31.0543 28.1595L31.0387 28.2327L31.0225 28.3057L31.0055 28.3788L30.9876 28.4517L30.9689 28.5246L30.9496 28.5973L30.9294 28.67L30.9084 28.7424L30.8867 28.8149L30.8642 28.8872L30.841 28.9593L30.8169 29.0314L30.7921 29.1032L30.7664 29.1748L30.74 29.2465L30.7129 29.3177L30.685 29.389L30.6562 29.4599L30.6268 29.5307L30.5965 29.6012L30.5655 29.6717L30.5337 29.7418L30.5011 29.8116L30.4677 29.8813L30.4338 29.9507L30.3989 30.0198L30.3633 30.0887L30.3269 30.1573L30.2897 30.2256L30.2519 30.2937L30.2133 30.3614L30.1739 30.4289L30.1339 30.4959L30.0929 30.5628L30.0514 30.6292L30.009 30.6952L29.9659 30.7611L29.9221 30.8264L29.8776 30.8916L29.8323 30.9562L29.7862 31.0205L29.7396 31.0844L29.6921 31.1479L29.6439 31.211L29.5951 31.2737L29.5455 31.336L29.4953 31.3978L29.4443 31.4593L29.3927 31.5203L29.3402 31.5808L29.2871 31.6408L29.2334 31.7005L29.1789 31.7596L29.1239 31.8182L29.0681 31.8765L29.0116 31.9341L28.9545 31.9912L28.8968 32.048L28.8383 32.1041L28.7792 32.1596L28.7195 32.2147L28.6591 32.2693L28.5982 32.3233L28.5365 32.3767L28.4743 32.4296L28.4113 32.4819L28.3478 32.5337L28.2837 32.5847L28.219 32.6353L28.1537 32.6853L28.0878 32.7347L28.0214 32.7834L27.9542 32.8315L27.8866 32.8791L27.8183 32.9259L27.7496 32.9723L27.6802 33.0178L27.6103 33.0628L27.5398 33.1071L27.4689 33.1507L27.3973 33.1936L27.3253 33.2359L27.2527 33.2775L27.1795 33.3184L27.106 33.3587L27.0319 33.3982L26.9573 33.4371L26.8822 33.4751L26.8066 33.5126L26.7306 33.5492L26.654 33.5851L26.5771 33.6204L26.4996 33.6548L26.4218 33.6886L26.3435 33.7215L26.2647 33.7537L26.1855 33.7851L26.1059 33.8158L26.0259 33.8457L25.9455 33.8749L25.8648 33.9033L25.7836 33.9308L25.702 33.9577L25.6201 33.9835L25.5378 34.0087L25.4551 34.0332L25.3722 34.0567L25.2889 34.0795L25.2052 34.1014L25.1212 34.1225L25.0369 34.1427L24.9523 34.1622L24.8674 34.1808L24.7822 34.1986L24.6967 34.2155L24.611 34.2316L24.525 34.2469L24.4387 34.2613L24.3522 34.2747L24.2654 34.2874L24.1785 34.2992L24.0913 34.3102L24.0039 34.3202L23.9163 34.3293L23.8285 34.3377L23.7405 34.3451L23.6523 34.3517L23.5639 34.3572L23.4755 34.3621L23.3868 34.366L23.2981 34.3689L23.2091 34.3709L23.1201 34.3721L23.031 34.3725L22.9417 34.3719L22.8524 34.3703L22.7629 34.3679L22.6734 34.3646L22.5839 34.3603L22.4942 34.3551L22.4045 34.3491L22.3148 34.3421L22.2251 34.3342L22.1353 34.3253L22.0456 34.3156L21.9557 34.3049L21.866 34.2933L21.7762 34.2808L21.6865 34.2674L21.5968 34.253L21.5073 34.2378L21.4177 34.2216L21.3282 34.2044L21.2387 34.1865L21.1494 34.1674L21.0602 34.1476L20.971 34.1267L20.882 34.1049L20.793 34.0823L20.7043 34.0587L20.6157 34.0341L20.5272 34.0087L20.439 33.9824L20.3508 33.9551L20.2629 33.9268L20.1752 33.8977L20.0876 33.8677L20.0003 33.8368L19.9132 33.8048L19.8263 33.772L19.7397 33.7383L19.6533 33.7037L19.5672 33.6681L19.4813 33.6317L19.3958 33.5944L19.3105 33.5561L19.2255 33.517L19.1409 33.4769L19.0564 33.4359L18.9724 33.394L18.8888 33.3513L18.8055 33.3077L18.7225 33.2631L18.6399 33.2177L18.5577 33.1714L18.4759 33.1242L18.3944 33.0761L18.3134 33.0272L18.2328 32.9775L18.1526 32.9268L18.0728 32.8752L17.9934 32.8229L17.9146 32.7696L17.8362 32.7154L17.7583 32.6605L17.6808 32.6047L17.6038 32.5481L17.5274 32.4905L17.4514 32.4323L17.376 32.3732L17.3011 32.3132L17.2268 32.2524L17.1529 32.1908L17.0796 32.1284L17.0069 32.0652L16.9348 32.0012L16.8632 31.9364L16.7922 31.8708L16.7219 31.8044L16.652 31.7373L16.5829 31.6693L16.5143 31.6006L16.4465 31.5311L16.3792 31.461L16.3126 31.3899L16.2466 31.3183L16.1813 31.2457L16.1168 31.1726L16.0528 31.0987L15.9896 31.024L15.927 30.9487L15.8651 30.8726L15.804 30.7958L15.7437 30.7184L15.684 30.6403L15.625 30.5615L15.5668 30.4819L15.5095 30.4018L15.4528 30.321L15.3969 30.2394L15.3417 30.1573L15.2874 30.0746L15.2339 29.9911L15.1812 29.9071L15.1292 29.8225L15.0781 29.7373L15.0277 29.6513L14.9783 29.565L14.9296 29.4779L14.8818 29.3903L14.8348 29.3021L14.7887 29.2134L14.7435 29.124L14.6991 29.0342L14.6555 28.9439L14.613 28.8529L14.5712 28.7616L14.5304 28.6696L14.4905 28.5772L14.4514 28.4842L14.4132 28.3908L14.376 28.2969L14.3397 28.2026L14.3043 28.1077L14.27 28.0124L14.2365 27.9167L14.2039 27.8206L14.1723 27.724L14.1417 27.627L14.112 27.5296L14.0833 27.4319L14.0555 27.3337L14.0287 27.2351L14.003 27.1362L13.9781 27.0369L13.9544 26.9373L13.9316 26.8374L13.9097 26.7371L13.8889 26.6365L13.8691 26.5356L13.8502 26.4344L13.8324 26.3329L13.8157 26.2312L13.8 26.1292L13.7852 26.0268L13.7715 25.9244L13.7589 25.8215L13.7473 25.7186L13.7367 25.6153L13.7271 25.5119L13.7187 25.4083L13.7112 25.3045L13.7048 25.2005L13.6995 25.0964L13.6952 24.9921L13.6919 24.8877L13.6898 24.7831L13.6888 24.6785L13.6886 24.5737L13.6897 24.4687L13.6919 24.3638L13.695 24.2587L13.6993 24.1535L13.7047 24.0483L13.7111 23.9432L13.7185 23.8379L13.7271 23.7326L13.7368 23.6273L13.7475 23.522L13.7594 23.4167L13.7723 23.3114L13.7862 23.2062L13.8014 23.101L13.8175 22.9958L13.8349 22.8908L13.8531 22.7857L13.8726 22.6807L13.8932 22.5759L13.9148 22.4712L13.9375 22.3666L13.9612 22.2621L13.9861 22.1579L14.0121 22.0537L14.0392 21.9497L14.0673 21.8459L14.0965 21.7423L14.1268 21.6387L14.1582 21.5356L14.1906 21.4325L14.2242 21.3297L14.2588 21.2272L14.2945 21.1249L14.3313 21.0229L14.3691 20.9211L14.4081 20.8197L14.4481 20.7186L14.4892 20.6176L14.5313 20.5172L14.5745 20.417L14.6188 20.3171L14.664 20.2176L14.7105 20.1184L14.7578 20.0198L14.8063 19.9213L14.8558 19.8233L14.9064 19.7258L14.9579 19.6287L15.0106 19.532L15.0642 19.4357L15.1189 19.3399L15.1746 19.2446L15.2314 19.1497L15.2891 19.0553L15.348 18.9614L15.4078 18.868L15.4685 18.7751L15.5303 18.6828L15.5931 18.5909L15.6569 18.4997L15.7217 18.4091L15.7874 18.3189L15.8541 18.2293L15.9218 18.1404L15.9904 18.052L16.0601 17.9643L16.1307 17.8771L16.2022 17.7907L16.2746 17.7048L16.3481 17.6196L16.4224 17.5351L16.4977 17.4512L16.5739 17.3681L16.651 17.2856L16.7291 17.2038L16.8079 17.1228L16.8878 17.0424L16.9685 16.9628L17.05 16.8839L17.1325 16.8058L17.2158 16.7284L17.2999 16.6518L17.385 16.5759L17.471 16.501L17.5576 16.4267L17.6452 16.3533L17.7335 16.2807L17.8228 16.2089L17.9127 16.138L18.0036 16.0679L18.0951 15.9986L18.1875 15.9302L18.2807 15.8627L18.3746 15.7961L18.4693 15.7302L18.5648 15.6654L18.6609 15.6014L18.7578 15.5384L18.8555 15.4763L18.9538 15.415L19.053 15.3548L19.1527 15.2954L19.2532 15.2371L19.3543 15.1796L19.4561 15.1231L19.5586 15.0677L19.6616 15.0132L19.7654 14.9597L19.8698 14.9072L19.9748 14.8557L20.0805 14.8052L20.1867 14.7557L20.2935 14.7073L20.4009 14.6599L20.5089 14.6134L20.6175 14.568L20.7265 14.5238L20.8362 14.4806L20.9464 14.4384L21.057 14.3973L21.1682 14.3573L21.28 14.3183L21.3922 14.2805L21.5049 14.2437L21.618 14.2081L21.7317 14.1735L21.8457 14.1401L21.9602 14.1078L22.0751 14.0766L22.1904 14.0465L22.3062 14.0175L22.4223 13.9898L22.5388 13.9632L22.6556 13.9377L22.7729 13.9133L22.8904 13.8901L22.9494 13.879ZM24.3942 22.4594L23.0533 22.7849L22.9745 16.0373L22.9114 16.0517L22.8162 16.0745L22.7211 16.0983L22.6268 16.1228L22.5326 16.1484L22.4389 16.1748L22.3453 16.2024L22.2525 16.2305L22.1596 16.2598L22.0678 16.2897L21.9758 16.3208L21.8843 16.3527L21.7933 16.3854L21.7027 16.419L21.6129 16.4534L21.5232 16.4888L21.434 16.525L21.3453 16.562L21.2568 16.6001L21.1694 16.6386L21.082 16.6783L20.9955 16.7186L20.909 16.76L20.8234 16.8019L20.738 16.8448L20.6536 16.8884L20.5694 16.9329L20.4859 16.9781L20.403 17.0241L20.3205 17.0709L20.2386 17.1185L20.1576 17.1667L20.0765 17.216L19.9965 17.2658L19.9171 17.3164L19.8382 17.3676L19.7598 17.4198L19.6822 17.4726L19.6052 17.5261L19.5288 17.5803L19.4532 17.6351L19.3779 17.6908L19.3034 17.7471L19.2297 17.8041L19.1565 17.8618L19.0841 17.9199L19.0125 17.9789L18.9413 18.0386L18.8708 18.099L18.8012 18.1597L18.7322 18.2213L18.6639 18.2833L18.5963 18.3461L18.5294 18.4095L18.4633 18.4735L18.398 18.5379L18.3332 18.6031L18.2693 18.6687L18.2061 18.735L18.1438 18.8017L18.0819 18.8693L18.021 18.937L17.9609 19.0054L17.9014 19.0744L17.8429 19.1437L17.785 19.2138L17.7281 19.284L17.6716 19.3551L17.6163 19.4264L17.5615 19.4983L17.5076 19.5708L17.4546 19.6435L17.4022 19.7166L17.3508 19.7903L17.3001 19.8645L17.2501 19.9389L17.2012 20.014L17.153 20.0891L17.1057 20.1648L17.059 20.241L17.0134 20.3173L16.9684 20.3944L16.9244 20.4713L16.8811 20.549L16.8387 20.6269L16.7972 20.705L16.7565 20.7835L16.7167 20.8623L16.6776 20.9416L16.6396 21.0208L16.6023 21.1007L16.5658 21.1805L16.5304 21.2608L16.4956 21.3413L16.4617 21.4221L16.4288 21.5029L16.3967 21.5843L16.3655 21.6657L16.335 21.7473L16.3056 21.829L16.277 21.9111L16.2492 21.9934L16.2223 22.0758L16.1962 22.1583L16.1711 22.2411L16.1468 22.324L16.1235 22.4068L16.1009 22.49L16.0792 22.5733L16.0585 22.6566L16.0386 22.7401L16.0195 22.8236L16.0014 22.9073L15.9841 22.9911L15.9677 23.0748L15.9521 23.1586L15.9375 23.2426L15.9238 23.3264L15.9108 23.4103L15.8987 23.4944L15.8876 23.5782L15.8773 23.6624L15.8679 23.7462L15.8593 23.8302L15.8516 23.9143L15.8448 23.9981L15.8388 24.082L15.8337 24.1659L15.8294 24.2496L15.826 24.3333L15.8235 24.4168L15.8218 24.5005L15.8209 24.5839L15.821 24.6673L15.8218 24.7505L15.8236 24.8337L15.8262 24.9166L15.8295 24.9995L15.8337 25.0822L15.8388 25.1647L15.8448 25.2471L15.8515 25.3293L15.8591 25.4113L15.8675 25.4934L15.8766 25.5748L15.8866 25.6564L15.8975 25.7375L15.9092 25.8187L15.9217 25.8994L15.9349 25.98L15.949 26.0605L15.9639 26.1405L15.9796 26.2204L15.996 26.2998L16.0133 26.3792L16.0314 26.4582L16.0502 26.537L16.0698 26.6153L16.0902 26.6936L16.1113 26.7713L16.1332 26.8489L16.1559 26.926L16.1792 27.0029L16.2034 27.0794L16.2283 27.1553L16.254 27.2313L16.2805 27.3067L16.3076 27.3817L16.3354 27.4565L16.364 27.5308L16.3933 27.6047L16.4233 27.6782L16.4539 27.7512L16.4854 27.824L16.5176 27.8963L16.5504 27.9682L16.5839 28.0396L16.618 28.1105L16.653 28.1813L16.6883 28.2512L16.7245 28.3209L16.7614 28.3901L16.799 28.4588L16.8371 28.5271L16.8759 28.5949L16.9153 28.662L16.9555 28.7289L16.9961 28.7952L17.0374 28.8609L17.0794 28.9263L17.1218 28.9911L17.165 29.0555L17.2086 29.1189L17.2529 29.1823L17.2978 29.2449L17.3432 29.307L17.3894 29.3687L17.4359 29.4296L17.4831 29.49L17.5308 29.5499L17.579 29.6094L17.6277 29.668L17.6771 29.7263L17.7269 29.7839L17.7772 29.8409L17.8282 29.8974L17.8794 29.9531L17.9313 30.0085L17.9837 30.0631L18.0364 30.1171L18.0898 30.1705L18.1435 30.2233L18.1977 30.2756L18.2524 30.3271L18.3076 30.378L18.3632 30.4284L18.4191 30.478L18.4756 30.5271L18.5323 30.5755L18.5896 30.6233L18.6473 30.6704L18.7054 30.7169L18.7637 30.7626L18.8226 30.8078L18.8818 30.8523L18.9414 30.8962L19.0013 30.9393L19.0616 30.9818L19.1222 31.0237L19.1831 31.0648L19.2443 31.1052L19.3059 31.145L19.368 31.1843L19.4301 31.2226L19.4926 31.2604L19.5555 31.2975L19.6185 31.3338L19.6818 31.3695L19.7456 31.4046L19.8095 31.4388L19.8736 31.4724L19.9379 31.5053L20.0027 31.5375L20.0674 31.569L20.1327 31.5998L20.198 31.6299L20.2633 31.6593L20.3292 31.688L20.3952 31.716L20.4611 31.7433L20.5274 31.7699L20.5939 31.7956L20.6607 31.8208L20.7272 31.8453L20.7943 31.869L20.8612 31.892L20.9283 31.9143L20.9957 31.9359L21.0632 31.9568L21.1307 31.9769L21.1983 31.9964L21.2661 32.0151L21.3339 32.0332L21.4017 32.0504L21.4697 32.0671L21.5376 32.0829L21.6057 32.0981L21.6739 32.1126L21.742 32.1263L21.8102 32.1394L21.8784 32.1517L21.9467 32.1634L22.015 32.1743L22.0833 32.1846L22.1513 32.194L22.2196 32.2028L22.2878 32.2109L22.3561 32.2184L22.4242 32.225L22.4924 32.231L22.5605 32.2363L22.6284 32.2409L22.6965 32.2448L22.7643 32.248L22.832 32.2506L22.9 32.2524L22.9674 32.2536L23.0349 32.2541L23.1024 32.2538L23.1696 32.253L23.237 32.2513L23.3041 32.2491L23.3709 32.2463L23.4377 32.2426L23.5046 32.2383L23.5709 32.2334L23.6373 32.2278L23.7034 32.2216L23.7695 32.2147L23.8353 32.207L23.9008 32.1989L23.9664 32.19L24.0316 32.1804L24.0965 32.1703L24.1615 32.1595L24.2261 32.1481L24.2905 32.136L24.3547 32.1232L24.4187 32.1099L24.4822 32.0959L24.5455 32.0814L24.6088 32.0662L24.6717 32.0503L24.7343 32.034L24.7966 32.017L24.8587 31.9994L24.9207 31.9811L24.9821 31.9623L25.0431 31.9429L25.1042 31.9228L25.1647 31.9022L25.225 31.8812L25.2849 31.8595L25.3445 31.8371L25.4039 31.8142L25.4629 31.7908L25.5214 31.7668L25.5797 31.7423L25.6377 31.7172L25.6954 31.6915L25.7524 31.6654L25.8094 31.6387L25.8658 31.6115L25.9218 31.5837L25.9776 31.5555L26.0328 31.5268L26.0878 31.4975L26.1423 31.4676L26.1964 31.4373L26.2501 31.4066L26.3035 31.3753L26.3564 31.3435L26.4088 31.3112L26.4608 31.2785L26.5124 31.2453L26.5636 31.2117L26.6145 31.1775L26.6647 31.143L26.7146 31.1079L26.7641 31.0725L26.8129 31.0367L26.8614 31.0003L26.9095 30.9635L26.9571 30.9263L27.0042 30.8887L27.051 30.8507L27.097 30.8124L27.1428 30.7736L27.1879 30.7344L27.2326 30.6948L27.2769 30.6548L27.3206 30.6144L27.3639 30.5738L27.4065 30.5327L27.4488 30.4913L27.4906 30.4494L27.5319 30.4074L27.5726 30.3649L27.6128 30.322L27.6524 30.279L27.6918 30.2354L27.7303 30.1918L27.7685 30.1476L27.8061 30.1032L27.8431 30.0586L27.8799 30.0135L27.9157 29.9683L27.9513 29.9227L27.9863 29.877L28.0207 29.8309L28.0546 29.7844L28.0879 29.738L28.1207 29.6909L28.1531 29.6438L28.1847 29.5966L28.2159 29.5489L28.2466 29.5011L28.2765 29.4532L28.306 29.4049L28.335 29.3565L28.3634 29.3078L28.3913 29.259L28.4185 29.2099L28.4453 29.1608L28.4715 29.1113L28.4971 29.0619L28.5221 29.0121L28.5466 28.9622L28.5706 28.9122L28.594 28.8619L28.6168 28.8117L28.639 28.7612L28.6606 28.7107L28.6818 28.6599L28.7023 28.6092L28.7224 28.558L28.7417 28.5073L28.7607 28.4558L28.7788 28.4051L28.7966 28.3536L28.8139 28.3021L28.8304 28.2508L28.8464 28.1992L28.8619 28.1478L28.8769 28.0958L28.8911 28.0445L28.9051 27.9924L28.9182 27.9411L28.9309 27.8891L28.943 27.8371L28.9545 27.7855L28.9655 27.734L28.9759 27.6817L28.9858 27.6301L28.9951 27.578L29.0038 27.5264L29.0121 27.4747L29.0198 27.4228L29.0269 27.3709L29.0334 27.3191L29.0394 27.2676L29.0449 27.2162L29.0498 27.1643L29.0542 27.1129L29.0581 27.0614L29.0613 27.01L29.0641 26.9587L29.0663 26.9075L29.0679 26.8566L29.0691 26.8053L29.0698 26.7541L29.0699 26.7034L29.0695 26.6527L29.0685 26.6021L29.067 26.5517L29.065 26.501L29.0625 26.4512L29.0595 26.4004L29.056 26.3509L29.0519 26.3011L29.0474 26.251L29.0422 26.2015L29.0368 26.1525L29.0306 26.1027L29.0241 26.054L29.017 26.005L29.0095 25.9566L29.0014 25.9078L28.9929 25.8594L28.9839 25.8114L28.9745 25.7635L28.9645 25.7155L28.954 25.6681L28.9432 25.6208L28.9318 25.5737L28.9201 25.527L28.9076 25.48L28.8951 25.4339L28.8818 25.3873L28.8682 25.3416L28.8541 25.2959L28.8396 25.2505L28.8246 25.2052L28.8091 25.1601L28.7934 25.1156L28.7771 25.0713L28.7603 25.0269L28.7432 24.9832L28.7257 24.9392L28.7079 24.8963L28.6894 24.8529L28.6708 24.8103L28.6516 24.768L28.632 24.7256L28.6121 24.6838L28.5918 24.6422L28.5711 24.6008L28.55 24.56L28.5285 24.5193L28.5067 24.479L28.4845 24.4389L28.4618 24.3992L28.439 24.3599L28.4157 24.3209L28.392 24.282L28.368 24.2438L28.3437 24.2058L28.3191 24.1681L28.2941 24.1306L28.2688 24.0937L28.2431 24.057L28.2172 24.0207L28.1909 23.9848L28.1642 23.9492L28.1375 23.914L28.1101 23.879L28.0827 23.8446L28.0549 23.8104L28.0268 23.7766L27.9984 23.7432L27.9699 23.7102L27.941 23.6776L27.9118 23.6453L27.8823 23.6133L27.8527 23.5819L27.8226 23.5508L27.7924 23.52L27.762 23.4897L27.7313 23.4598L27.7005 23.4303L27.6691 23.4009L27.6379 23.3722L27.6063 23.3437L27.5745 23.3159L27.5424 23.2882L27.5102 23.2611L27.4777 23.2343L27.4451 23.208L27.4123 23.182L27.3793 23.1563L27.3461 23.1313L27.3127 23.1064L27.2791 23.0821L27.2455 23.0582L27.2116 23.0346L27.1777 23.0115L27.1435 22.9888L27.109 22.9665L27.0747 22.9446L27.0399 22.9231L27.0052 22.9021L26.9705 22.8815L26.9354 22.8613L26.9002 22.8415L26.8651 22.8221L26.8298 22.8031L26.7943 22.7845L26.759 22.7664L26.7231 22.7486L26.6875 22.7313L26.6517 22.7145L26.6159 22.698L26.5799 22.6819L26.5437 22.6662L26.5079 22.6511L26.4716 22.6363L26.4353 22.6219L26.3991 22.6079L26.3628 22.5944L26.3265 22.5812L26.2901 22.5685L26.2537 22.5561L26.2174 22.5442L26.1809 22.5327L26.1443 22.5216L26.108 22.5109L26.0713 22.5006L26.035 22.4908L25.9984 22.4814L25.9619 22.4723L25.9254 22.4636L25.889 22.4554L25.8524 22.4476L25.816 22.4401L25.7797 22.433L25.7434 22.4264L25.7069 22.4202L25.6708 22.4144L25.6343 22.4089L25.5983 22.4038L25.562 22.3991L25.526 22.3949L25.4901 22.391L25.4541 22.3875L25.4183 22.3843L25.3824 22.3816L25.3467 22.3793L25.311 22.3773L25.2754 22.3757L25.2401 22.3745L25.2047 22.3736L25.1694 22.3731L25.1341 22.373L25.0991 22.3734L25.0641 22.3739L25.0293 22.3749L24.9945 22.3763L24.9601 22.378L24.9254 22.3801L24.8912 22.3825L24.857 22.3852L24.8229 22.3884L24.7891 22.3918L24.7551 22.3956L24.7216 22.3997L24.6881 22.4042L24.6548 22.409L24.6216 22.4142L24.5886 22.4197L24.5557 22.4255L24.5232 22.4316L24.4906 22.4381L24.4583 22.4449L24.4261 22.4519L24.3942 22.4594Z" fill="#1DAEFF"/>
</svg>
